<?xml version="1.0" encoding="UTF-8" standalone="no"?>
<!-- Created with Inkscape (http://www.inkscape.org/) -->

<svg
   width="210mm"
   height="297mm"
   viewBox="0 0 210 297"
   version="1.1"
   id="svg5"
   inkscape:version="1.1.1 (3bf5ae0d25, 2021-09-20)"
   sodipodi:docname="icons.svg"
   xmlns:inkscape="http://www.inkscape.org/namespaces/inkscape"
   xmlns:sodipodi="http://sodipodi.sourceforge.net/DTD/sodipodi-0.dtd"
   xmlns="http://www.w3.org/2000/svg"
   xmlns:svg="http://www.w3.org/2000/svg">
  <sodipodi:namedview
     id="namedview7"
     pagecolor="#ffffff"
     bordercolor="#666666"
     borderopacity="1.0"
     inkscape:pageshadow="2"
     inkscape:pageopacity="0.0"
     inkscape:pagecheckerboard="0"
     inkscape:document-units="mm"
     showgrid="false"
     inkscape:zoom="0.64052329"
     inkscape:cx="341.12733"
     inkscape:cy="537.84149"
     inkscape:window-width="1280"
     inkscape:window-height="961"
     inkscape:window-x="-8"
     inkscape:window-y="-8"
     inkscape:window-maximized="1"
     inkscape:current-layer="layer1" />
  <defs
     id="defs2" />
  <g
     inkscape:label="Vrstva 1"
     inkscape:groupmode="layer"
     id="layer1">
    <path
       fill="#010202"
       d="m 42.33281,18.414757 c -2.776806,-0.01829 -5.032015,-2.285024 -5.032015,-5.052917 0,-2.405273 1.659141,-4.4158256 3.917733,-4.9270616 -0.03672,-0.202048 -0.05515,-0.408217 -0.05515,-0.6177783 0,-1.8948445 1.54157,-3.4364138 3.436453,-3.4364138 0.629372,0 1.232628,0.1679689 1.758949,0.4827261 1.442184,-1.9071478 3.667506,-3.0240734 6.096182,-3.0240734 3.795721,0 6.995163,2.7960495 7.562824,6.4804374 2.627164,0.176994 4.710634,2.3708786 4.710634,5.0421636 0,2.758799 -2.244424,5.02536 -5.003223,5.052527 z M 44.599825,5.8241454 c -1.098881,0 -1.992894,0.8939815 -1.992894,1.9928618 0,0.3134832 0.07116,0.6140032 0.211495,0.8931302 0.110205,0.219211 0.1015,0.479413 -0.02312,0.690801 -0.12462,0.21135 -0.348097,0.344923 -0.593284,0.354617 -1.938866,0.07654 -3.457669,1.6606186 -3.457669,3.6062846 0,1.977141 1.611915,3.596316 3.593214,3.609358 h 17.380506 c 1.963536,-0.01938 3.566781,-1.638381 3.566781,-3.608998 0,-1.990639 -1.619492,-3.6101316 -3.610095,-3.6101316 -0.07419,0 -0.154822,0.0032 -0.25375,0.01007 -0.191511,0.01337 -0.380662,-0.05032 -0.525229,-0.176769 -0.144567,-0.126485 -0.232781,-0.305385 -0.245081,-0.497068 -0.208816,-3.255233 -2.93029,-5.8051462 -6.195743,-5.8051462 -2.189868,0 -4.176136,1.1193927 -5.313291,2.9943634 -0.115104,0.1898188 -0.311197,0.3160941 -0.531642,0.3424175 -0.22034,0.026014 -0.440715,-0.050286 -0.597266,-0.2077212 C 45.635832,6.0332087 45.134041,5.824499 44.599825,5.824499 Z"
       id="path118"
       style="fill:#303b4a;fill-opacity:1;stroke-width:0.0721779"
       inkscape:export-filename="C:\Users\sebas\path118.png"
       inkscape:export-xdpi="96"
       inkscape:export-ydpi="96" />
    <path
       fill="#010202"
       d="m 22.520054,35.934077 c -0.170347,0 -0.340363,-0.06722 -0.466873,-0.20057 -0.244483,-0.257777 -0.23377,-0.664936 0.02401,-0.909447 0.981226,-0.930805 1.521639,-2.187957 1.521639,-3.539879 0,-2.68985 -2.188357,-4.878175 -4.878176,-4.878175 -2.362544,0 -4.381345,1.684319 -4.800342,4.004935 -0.06315,0.349561 -0.397964,0.581775 -0.747328,0.518752 -0.349694,-0.06312 -0.581936,-0.397736 -0.518783,-0.747362 0.529632,-2.933669 3.080971,-5.06294 6.066453,-5.06294 3.399258,0 6.16479,2.765502 6.16479,6.16479 0,1.708456 -0.682854,3.297115 -1.922779,4.473298 -0.124387,0.118037 -0.283697,0.176598 -0.442607,0.176598 z"
       id="path36"
       style="fill:#303b4a;fill-opacity:1;stroke-width:0.0677165"
       inkscape:export-filename="C:\Users\sebas\path36.png"
       inkscape:export-xdpi="96"
       inkscape:export-ydpi="96" />
    <path
       fill="#010202"
       d="m 16.814001,24.57984 c -0.295926,0 -0.562298,-0.205365 -0.627895,-0.50632 l -0.678427,-3.109541 c -0.07578,-0.347115 0.144231,-0.689896 0.491346,-0.765648 0.347774,-0.07582 0.69,0.144328 0.765644,0.491408 l 0.678427,3.109542 c 0.07578,0.347114 -0.14423,0.689896 -0.491344,0.765647 -0.04623,0.01009 -0.09238,0.01491 -0.137751,0.01491 z"
       id="path38"
       style="fill:#303b4a;fill-opacity:1;stroke-width:0.0677165"
       inkscape:export-filename="C:\Users\sebas\path36.png"
       inkscape:export-xdpi="96"
       inkscape:export-ydpi="96" />
    <path
       fill="#010202"
       d="m 26.269399,30.591541 c -0.295927,0 -0.562298,-0.205366 -0.6279,-0.506321 -0.07578,-0.347114 0.144228,-0.689896 0.491345,-0.765648 l 3.307996,-0.721703 c 0.347841,-0.07582 0.689993,0.144327 0.765645,0.491408 0.07578,0.347114 -0.144231,0.689896 -0.49134,0.765647 l -3.307996,0.721705 c -0.04623,0.01009 -0.09239,0.01491 -0.13775,0.01491 z"
       id="path40"
       style="fill:#303b4a;fill-opacity:1;stroke-width:0.0677165"
       inkscape:export-filename="C:\Users\sebas\path36.png"
       inkscape:export-xdpi="96"
       inkscape:export-ydpi="96" />
    <path
       fill="#010202"
       d="m 22.807191,25.665322 c -0.118969,0 -0.239324,-0.03294 -0.346917,-0.101972 -0.29897,-0.191906 -0.385801,-0.589874 -0.193892,-0.888878 l 1.815385,-2.828458 c 0.191909,-0.299005 0.589814,-0.3858 0.888917,-0.193925 0.29897,0.191907 0.385794,0.589875 0.193892,0.88888 l -1.815387,2.828457 c -0.122871,0.191445 -0.330254,0.295896 -0.541998,0.295896 z"
       id="path42"
       style="fill:#303b4a;fill-opacity:1;stroke-width:0.0677165"
       inkscape:export-filename="C:\Users\sebas\path36.png"
       inkscape:export-xdpi="96"
       inkscape:export-ydpi="96" />
    <path
       fill="#010202"
       d="m 12.192811,27.981046 c -0.118971,0 -0.239324,-0.03294 -0.346851,-0.101973 L 9.0174701,26.063719 C 8.7184336,25.871812 8.6316009,25.473844 8.8235094,25.174841 c 0.1919094,-0.299004 0.5898802,-0.3858 0.8888485,-0.193925 l 2.8284891,1.815354 c 0.299044,0.191907 0.385869,0.589875 0.193961,0.888879 -0.122872,0.191445 -0.330254,0.295897 -0.541997,0.295897 z"
       id="path44"
       style="fill:#303b4a;fill-opacity:1;stroke-width:0.0677165"
       inkscape:export-filename="C:\Users\sebas\path36.png"
       inkscape:export-xdpi="96"
       inkscape:export-ydpi="96" />
    <path
       fill="#010202"
       d="m 27.885208,38.109541 c -0.118965,0 -0.239324,-0.03294 -0.346913,-0.101975 l -2.828429,-1.815353 c -0.298967,-0.191909 -0.385794,-0.589873 -0.193892,-0.888882 0.191909,-0.299002 0.589811,-0.385896 0.888915,-0.19392 l 2.828421,1.815354 c 0.298978,0.191908 0.385801,0.589872 0.193895,0.888875 -0.122866,0.191448 -0.330248,0.295901 -0.541997,0.295901 z"
       id="path46"
       style="fill:#303b4a;fill-opacity:1;stroke-width:0.0677165"
       inkscape:export-filename="C:\Users\sebas\path36.png"
       inkscape:export-xdpi="96"
       inkscape:export-ydpi="96" />
    <path
       fill="#010202"
       d="m 6.442655,45.418471 c -2.3767649,-0.01564 -4.3069523,-1.955683 -4.3069523,-4.324707 0,-2.048792 1.4065078,-3.762964 3.3255219,-4.210598 -0.028235,-0.164498 -0.042392,-0.332136 -0.042392,-0.502383 0,-1.62702 1.3236499,-2.950703 2.9506973,-2.950703 0.5312835,0 1.0409464,0.139401 1.4873881,0.400943 1.231988,-1.615576 3.124621,-2.561063 5.18938,-2.561063 3.23307,0 5.959522,2.375472 6.454037,5.510047 2.23743,0.162974 4.007976,2.035466 4.007976,4.313757 0,2.361183 -1.920991,4.301094 -4.282148,4.324377 z M 8.3695313,34.716702 c -0.9175467,0 -1.6640817,0.746501 -1.6640817,1.664081 0,0.261807 0.059386,0.512703 0.1765642,0.745675 0.09827,0.19541 0.09053,0.427326 -0.020566,0.615734 -0.1110276,0.188401 -0.310209,0.307467 -0.5287717,0.316094 -1.6320107,0.06445 -2.910358,1.397779 -2.910358,3.035478 0,1.664218 1.3568443,3.027109 3.0245619,3.038092 h 14.772931 c 1.652383,-0.0163 3.001886,-1.379069 3.001886,-3.037793 0,-1.675518 -1.363189,-3.038682 -3.038715,-3.038682 -0.0627,0 -0.130538,0.0026 -0.213666,0.0084 -0.171336,0.01217 -0.339308,-0.0449 -0.468065,-0.15759 -0.128885,-0.112714 -0.207449,-0.272153 -0.218426,-0.443002 -0.176497,-2.751217 -2.476614,-4.906346 -5.236526,-4.906346 -1.850769,0 -3.529598,0.946116 -4.490727,2.530847 -0.102631,0.169157 -0.277347,0.281708 -0.473812,0.305152 C 9.8851574,35.416188 9.6888809,35.347977 9.5494123,35.20775 9.2346384,34.891257 8.8155737,34.716974 8.3695313,34.716974 Z"
       id="path48"
       style="fill:#303b4a;fill-opacity:1;stroke-width:0.0677165"
       inkscape:export-filename="C:\Users\sebas\path36.png"
       inkscape:export-xdpi="96"
       inkscape:export-ydpi="96" />
    <path
       fill="#010202"
       d="m 12.086279,52.140103 c -0.164734,0 -0.329461,-0.06289 -0.455103,-0.188639 -0.2511,-0.251355 -0.250897,-0.658678 6.65e-4,-0.909771 l 1.536321,-1.534771 c 0.251355,-0.251058 0.65865,-0.250889 0.909745,7.68e-4 0.251092,0.251356 0.25089,0.658679 -7.68e-4,0.909771 l -1.536319,1.534771 c -0.12558,0.125478 -0.290111,0.188206 -0.454636,0.188206 z"
       id="path50"
       style="fill:#303b4a;fill-opacity:1;stroke-width:0.0677165"
       inkscape:export-filename="C:\Users\sebas\path36.png"
       inkscape:export-xdpi="96"
       inkscape:export-ydpi="96" />
    <path
       fill="#010202"
       d="m 6.7488287,48.643172 c -0.1647272,0 -0.3294554,-0.06289 -0.4551032,-0.188667 -0.2510933,-0.251357 -0.2508902,-0.658645 6.654e-4,-0.909773 l 0.9688624,-0.967874 c 0.2512894,-0.251025 0.6585842,-0.250861 0.9097459,7.68e-4 0.2510924,0.251359 0.2508963,0.658654 -6.654e-4,0.909778 l -0.9688624,0.967869 c -0.1255804,0.12545 -0.2901115,0.18817 -0.4546427,0.18817 z"
       id="path52"
       style="fill:#303b4a;fill-opacity:1;stroke-width:0.0677165"
       inkscape:export-filename="C:\Users\sebas\path36.png"
       inkscape:export-xdpi="96"
       inkscape:export-ydpi="96" />
    <path
       fill="#010202"
       d="m 15.276497,48.643172 c -0.164728,0 -0.329454,-0.06285 -0.455104,-0.188633 -0.251092,-0.251358 -0.250897,-0.658679 7.68e-4,-0.909779 l 0.9688,-0.967866 c 0.251358,-0.251033 0.658646,-0.25093 0.90974,7.68e-4 0.251091,0.251363 0.250894,0.658687 -7.68e-4,0.909778 l -0.9688,0.967874 c -0.125575,0.125445 -0.290106,0.188198 -0.454636,0.188198 z"
       id="path54"
       style="fill:#303b4a;fill-opacity:1;stroke-width:0.0677165"
       inkscape:export-filename="C:\Users\sebas\path36.png"
       inkscape:export-xdpi="96"
       inkscape:export-ydpi="96" />
    <path
       fill="#010202"
       d="m 18.037269,50.186934 c -0.164795,0 -0.329524,-0.06292 -0.455171,-0.1887 -0.251094,-0.251391 -0.25083,-0.658714 7.68e-4,-0.909778 l 2.51484,-2.511631 c 0.251359,-0.251092 0.658653,-0.250795 0.909746,7.68e-4 0.251094,0.251392 0.250828,0.658712 -7.68e-4,0.909778 l -2.514838,2.511631 c -0.12558,0.125445 -0.290042,0.188137 -0.454574,0.188137 z"
       id="path56"
       style="fill:#303b4a;fill-opacity:1;stroke-width:0.0677165"
       inkscape:export-filename="C:\Users\sebas\path36.png"
       inkscape:export-xdpi="96"
       inkscape:export-ydpi="96" />
    <path
       fill="#010202"
       d="m 8.7733862,50.861783 c -0.1647273,0 -0.3294546,-0.06289 -0.4551032,-0.188631 -0.2510933,-0.251358 -0.2508963,-0.658679 6.654e-4,-0.909781 l 3.1896956,-3.186477 c 0.251358,-0.251094 0.658646,-0.250864 0.909739,7.68e-4 0.251093,0.251363 0.250897,0.658687 -6.66e-4,0.909778 l -3.1896888,3.186488 c -0.1255795,0.125478 -0.2901109,0.188198 -0.454642,0.188198 z"
       id="path58"
       style="fill:#303b4a;fill-opacity:1;stroke-width:0.0677165"
       inkscape:export-filename="C:\Users\sebas\path36.png"
       inkscape:export-xdpi="96"
       inkscape:export-ydpi="96" />
    <path
       fill="#010202"
       d="m 49.782004,42.933555 c -3.740147,0 -6.782979,-3.04284 -6.782979,-6.782982 0,-3.740148 3.042832,-6.78298 6.782979,-6.78298 3.740144,0 6.782982,3.042832 6.782982,6.78298 0,3.740142 -3.042838,6.782982 -6.782982,6.782982 z m 0,-12.209367 c -2.992127,0 -5.426382,2.434258 -5.426382,5.426385 0,2.99213 2.434255,5.426385 5.426382,5.426385 2.992131,0 5.426387,-2.434255 5.426387,-5.426385 0,-2.992127 -2.434256,-5.426385 -5.426387,-5.426385 z"
       id="path2"
       style="fill:#303b4a;fill-opacity:1;stroke-width:0.0678298"
       inkscape:export-filename="C:\Users\sebas\path2.png"
       inkscape:export-xdpi="96"
       inkscape:export-ydpi="96" />
    <path
       fill="#010202"
       d="m 49.77538,28.275691 c -0.374618,0 -0.678298,-0.303678 -0.678298,-0.678298 v -3.662809 c 0,-0.37462 0.30368,-0.678298 0.678298,-0.678298 0.374623,0 0.678297,0.303678 0.678297,0.678298 v 3.662809 c 0,0.37462 -0.303674,0.678298 -0.678297,0.678298 z"
       id="path4"
       style="fill:#303b4a;fill-opacity:1;stroke-width:0.0678298"
       inkscape:export-filename="C:\Users\sebas\path2.png"
       inkscape:export-xdpi="96"
       inkscape:export-ydpi="96" />
    <path
       fill="#010202"
       d="m 49.77538,49.03161 c -0.374618,0 -0.678298,-0.303673 -0.678298,-0.678297 v -3.662809 c 0,-0.374619 0.30368,-0.6783 0.678298,-0.6783 0.374623,0 0.678297,0.303681 0.678297,0.6783 v 3.662809 c 0,0.374624 -0.303674,0.678297 -0.678297,0.678297 z"
       id="path6"
       style="fill:#303b4a;fill-opacity:1;stroke-width:0.0678298"
       inkscape:export-filename="C:\Users\sebas\path2.png"
       inkscape:export-xdpi="96"
       inkscape:export-ydpi="96" />
    <path
       fill="#010202"
       d="m 41.228824,36.822246 h -3.662809 c -0.374621,0 -0.678298,-0.303675 -0.678298,-0.678297 0,-0.374618 0.303677,-0.678298 0.678298,-0.678298 h 3.662809 c 0.374624,0 0.678298,0.30368 0.678298,0.678298 0,0.374622 -0.303674,0.678297 -0.678298,0.678297 z"
       id="path8"
       style="fill:#303b4a;fill-opacity:1;stroke-width:0.0678298"
       inkscape:export-filename="C:\Users\sebas\path2.png"
       inkscape:export-xdpi="96"
       inkscape:export-ydpi="96" />
    <path
       fill="#010202"
       d="m 61.984744,36.822246 h -3.662809 c -0.374619,0 -0.678298,-0.303675 -0.678298,-0.678297 0,-0.374618 0.303679,-0.678298 0.678298,-0.678298 h 3.662809 c 0.374624,0 0.678297,0.30368 0.678297,0.678298 0,0.374622 -0.303673,0.678297 -0.678297,0.678297 z"
       id="path10"
       style="fill:#303b4a;fill-opacity:1;stroke-width:0.0678298"
       inkscape:export-filename="C:\Users\sebas\path2.png"
       inkscape:export-xdpi="96"
       inkscape:export-ydpi="96" />
    <path
       fill="#010202"
       d="m 55.781164,30.816461 c -0.173582,0 -0.3472,-0.06621 -0.479642,-0.198654 -0.264864,-0.264894 -0.264864,-0.694395 0,-0.959288 l 2.627542,-2.627544 c 0.264895,-0.264894 0.694394,-0.264894 0.95929,0 0.264861,0.264894 0.264861,0.694395 0,0.959289 l -2.627544,2.627543 c -0.132459,0.132448 -0.30606,0.198654 -0.479646,0.198654 z"
       id="path12"
       style="fill:#303b4a;fill-opacity:1;stroke-width:0.0678298"
       inkscape:export-filename="C:\Users\sebas\path2.png"
       inkscape:export-xdpi="96"
       inkscape:export-ydpi="96" />
    <path
       fill="#010202"
       d="m 41.14205,45.455576 c -0.173581,0 -0.347197,-0.06621 -0.479645,-0.198653 -0.264861,-0.264896 -0.264861,-0.694393 0,-0.95929 l 2.627542,-2.627544 c 0.264898,-0.264896 0.694393,-0.264896 0.959291,0 0.264861,0.264895 0.264861,0.694394 0,0.959291 l -2.627545,2.627543 c -0.132442,0.132443 -0.306061,0.198653 -0.479643,0.198653 z"
       id="path14"
       style="fill:#303b4a;fill-opacity:1;stroke-width:0.0678298"
       inkscape:export-filename="C:\Users\sebas\path2.png"
       inkscape:export-xdpi="96"
       inkscape:export-ydpi="96" />
    <path
       fill="#010202"
       d="m 43.769593,30.816461 c -0.173582,0 -0.347193,-0.06621 -0.479646,-0.198654 l -2.627541,-2.627543 c -0.264861,-0.264894 -0.264861,-0.694395 0,-0.959289 0.264894,-0.264894 0.694392,-0.264894 0.959287,0 l 2.627545,2.627544 c 0.264861,0.264893 0.264861,0.694393 0,0.959288 -0.132444,0.132448 -0.306064,0.198654 -0.479645,0.198654 z"
       id="path16"
       style="fill:#303b4a;fill-opacity:1;stroke-width:0.0678298"
       inkscape:export-filename="C:\Users\sebas\path2.png"
       inkscape:export-xdpi="96"
       inkscape:export-ydpi="96" />
    <path
       fill="#010202"
       d="m 58.408707,45.455576 c -0.173583,0 -0.347191,-0.06621 -0.479643,-0.198653 L 55.301522,42.62938 c -0.264864,-0.264897 -0.264864,-0.694396 0,-0.959291 0.264893,-0.264896 0.69439,-0.264896 0.959288,0 l 2.627544,2.627544 c 0.264861,0.264897 0.264861,0.694394 0,0.95929 -0.132443,0.132443 -0.306063,0.198653 -0.479647,0.198653 z"
       id="path18"
       style="fill:#303b4a;fill-opacity:1;stroke-width:0.0678298"
       inkscape:export-filename="C:\Users\sebas\path2.png"
       inkscape:export-xdpi="96"
       inkscape:export-ydpi="96" />
    <path
       fill="#010202"
       d="m 90.608315,36.665652 c -0.179188,0 -0.356865,-0.0778 -0.478648,-0.227772 -0.214505,-0.264144 -0.174249,-0.652173 0.08989,-0.86668 1.159405,-0.941503 1.824346,-2.337011 1.824346,-3.828636 0,-2.717914 -2.211165,-4.929079 -4.929077,-4.929079 -2.514036,0 -4.619842,1.880955 -4.898366,4.375248 -0.03776,0.338185 -0.342393,0.581564 -0.680692,0.543991 -0.338154,-0.03779 -0.581725,-0.342545 -0.543937,-0.680729 0.348234,-3.118849 2.980521,-5.470779 6.122995,-5.470779 3.397396,0 6.161341,2.763971 6.161341,6.161348 0,1.864497 -0.830946,3.608658 -2.279818,4.78521 -0.114202,0.09275 -0.251571,0.137878 -0.38803,0.137878 z"
       id="path20"
       style="fill:#303b4a;fill-opacity:1;stroke-width:0.0616134"
       inkscape:export-filename="C:\Users\sebas\path20.png"
       inkscape:export-xdpi="96"
       inkscape:export-ydpi="96" />
    <path
       fill="#010202"
       d="m 87.108796,24.589383 c -0.340254,0 -0.616132,-0.275846 -0.616132,-0.616134 v -3.327127 c 0,-0.340287 0.275878,-0.616134 0.616132,-0.616134 0.340264,0 0.616133,0.275847 0.616133,0.616134 v 3.327127 c 0,0.340288 -0.275869,0.616134 -0.616133,0.616134 z"
       id="path22"
       style="fill:#303b4a;fill-opacity:1;stroke-width:0.0616134"
       inkscape:export-filename="C:\Users\sebas\path20.png"
       inkscape:export-xdpi="96"
       inkscape:export-ydpi="96" />
    <path
       fill="#010202"
       d="m 79.345503,32.352679 h -3.327127 c -0.340285,0 -0.616134,-0.275843 -0.616134,-0.616134 0,-0.340286 0.275849,-0.616135 0.616134,-0.616135 h 3.327127 c 0.340293,0 0.616133,0.275849 0.616133,0.616135 0,0.340291 -0.27584,0.616134 -0.616133,0.616134 z"
       id="path24"
       style="fill:#303b4a;fill-opacity:1;stroke-width:0.0616134"
       inkscape:export-filename="C:\Users\sebas\path20.png"
       inkscape:export-xdpi="96"
       inkscape:export-ydpi="96" />
    <path
       fill="#010202"
       d="m 92.564181,26.897301 c -0.157708,0 -0.315355,-0.06014 -0.435689,-0.180448 -0.240623,-0.240617 -0.240623,-0.630756 0,-0.871372 l 2.38674,-2.38674 c 0.240676,-0.240617 0.630693,-0.240617 0.871369,0 0.240615,0.240618 0.240615,0.630755 0,0.871373 l -2.386739,2.386739 c -0.120334,0.120309 -0.277981,0.180448 -0.435681,0.180448 z"
       id="path28"
       style="fill:#303b4a;fill-opacity:1;stroke-width:0.0616134"
       inkscape:export-filename="C:\Users\sebas\path20.png"
       inkscape:export-xdpi="96"
       inkscape:export-ydpi="96" />
    <path
       fill="#010202"
       d="m 81.65342,26.897301 c -0.157675,0 -0.315374,-0.06014 -0.435686,-0.180448 l -2.386741,-2.386739 c -0.240587,-0.240617 -0.240587,-0.630755 0,-0.871373 0.24062,-0.240617 0.630757,-0.240617 0.871376,0 l 2.386738,2.38674 c 0.24059,0.240616 0.24059,0.630754 0,0.871372 -0.120305,0.120309 -0.278011,0.180448 -0.435687,0.180448 z"
       id="path30"
       style="fill:#303b4a;fill-opacity:1;stroke-width:0.0616134"
       inkscape:export-filename="C:\Users\sebas\path20.png"
       inkscape:export-xdpi="96"
       inkscape:export-ydpi="96" />
    <path
       fill="#010202"
       d="m 94.950912,40.194797 c -0.1577,0 -0.315347,-0.06014 -0.43568,-0.180446 l -2.38674,-2.386741 c -0.240623,-0.240618 -0.240623,-0.630755 0,-0.871374 0.240676,-0.240619 0.630694,-0.240619 0.87137,0 l 2.386739,2.386739 c 0.240624,0.24062 0.240624,0.630756 0,0.871376 -0.120333,0.120304 -0.27798,0.180446 -0.435689,0.180446 z"
       id="path32"
       style="fill:#303b4a;fill-opacity:1;stroke-width:0.0616134"
       inkscape:export-filename="C:\Users\sebas\path20.png"
       inkscape:export-xdpi="96"
       inkscape:export-ydpi="96" />
    <path
       fill="#010202"
       d="m 74.784062,45.907639 c -2.370375,-0.0156 -4.295493,-1.95057 -4.295493,-4.313334 0,-2.05322 1.416296,-3.769489 3.344305,-4.205902 -0.03135,-0.172475 -0.04708,-0.348468 -0.04708,-0.52735 0,-1.617507 1.315934,-2.933442 2.933466,-2.933442 0.537252,0 1.052211,0.143387 1.501496,0.412071 1.231098,-1.628 3.130703,-2.581444 5.203903,-2.581444 3.240148,0 5.971296,2.386795 6.455899,5.53191 2.242638,0.151088 4.021118,2.02386 4.021118,4.304161 0,2.354996 -1.91591,4.289806 -4.270939,4.312997 z m 1.935199,-10.747758 c -0.938042,0 -1.701202,0.763132 -1.701202,1.701172 0,0.2676 0.06074,0.524133 0.180539,0.762404 0.09408,0.187127 0.08664,0.409244 -0.01972,0.589691 -0.106374,0.180417 -0.297142,0.294438 -0.506442,0.302713 -1.655081,0.06534 -2.951582,1.41756 -2.951582,3.078444 0,1.687751 1.375983,3.069933 3.067285,3.081067 h 14.836532 c 1.676145,-0.01653 3.044754,-1.398577 3.044754,-3.08076 0,-1.699274 -1.382455,-3.081727 -3.081696,-3.081727 -0.06326,0 -0.132129,0.0027 -0.216555,0.0086 -0.163054,0.01116 -0.324969,-0.04291 -0.448377,-0.150903 -0.123408,-0.107972 -0.198742,-0.260656 -0.209212,-0.424313 -0.178278,-2.778774 -2.501419,-4.95546 -5.288909,-4.95546 -1.869346,0 -3.564887,0.955551 -4.5356,2.556083 -0.09826,0.162037 -0.265649,0.269831 -0.453828,0.292301 -0.188147,0.0222 -0.376211,-0.04292 -0.509845,-0.177317 -0.321756,-0.323532 -0.7501,-0.501694 -1.206126,-0.501694 z"
       id="path34"
       style="fill:#303b4a;fill-opacity:1;stroke-width:0.0616134"
       inkscape:export-filename="C:\Users\sebas\path20.png"
       inkscape:export-xdpi="96"
       inkscape:export-ydpi="96" />
    <path
       fill="#010202"
       d="m 124.94733,38.453536 h -0.72047 v 0 l -15.67545,-0.0062 c -2.61681,0 -4.74574,-2.134816 -4.74574,-4.75893 0,-2.265179 1.56472,-4.158755 3.69485,-4.640308 -0.0345,-0.190519 -0.052,-0.384965 -0.052,-0.582529 0,-1.787085 1.45388,-3.240986 3.24096,-3.240986 0.59362,0 1.16249,0.158348 1.65883,0.455201 1.36024,-1.79878 3.459,-2.852296 5.7494,-2.852296 3.57954,0 6.59681,2.636313 7.13243,6.110526 2.47795,0.166652 4.44277,2.235063 4.44277,4.75368 0,2.600085 -2.11678,4.736227 -4.71861,4.761754 -0.002,6.9e-5 -0.004,6.9e-5 -0.006,6.9e-5 z M 124.2274,37.09184 h 0.71691 c 1.85698,-0.02008 3.36715,-1.544771 3.36715,-3.40039 0,-1.876456 -1.52735,-3.403085 -3.40472,-3.403085 -0.0802,0 -0.16598,0.0053 -0.2393,0.01037 -0.18048,0.0127 -0.35897,-0.04744 -0.49536,-0.16672 -0.13632,-0.119296 -0.21953,-0.288011 -0.23113,-0.468789 -0.1969,-3.069807 -2.76359,-5.474484 -5.84325,-5.474484 -2.06519,0 -3.93847,1.055806 -5.01103,2.824244 -0.10855,0.179014 -0.29348,0.298106 -0.50138,0.32294 -0.20798,0.02448 -0.41565,-0.04744 -0.56328,-0.195905 -0.35543,-0.357376 -0.82868,-0.554177 -1.33256,-0.554177 -1.03636,0 -1.87951,0.843148 -1.87951,1.879546 0,0.295683 0.0671,0.579071 0.19945,0.842318 0.10389,0.206741 0.0958,0.452139 -0.0219,0.6515 -0.1175,0.199327 -0.32829,0.3253 -0.55953,0.334443 -1.82856,0.07245 -3.26095,1.563553 -3.26095,3.394841 0,1.873401 1.51818,3.397496 3.3843,3.397496 h 0.69999 z"
       id="path144"
       style="stroke-width:0.0680715;fill:#303b4a;fill-opacity:1"
       inkscape:export-filename="C:\Users\sebas\path144.png"
       inkscape:export-xdpi="96"
       inkscape:export-ydpi="96" />
    <path
       fill="#010202"
       d="m 114.35392,45.726904 c -0.17434,0 -0.34864,-0.06655 -0.48159,-0.199635 -0.26569,-0.265968 -0.26548,-0.696998 7.7e-4,-0.96264 l 1.70465,-1.702922 c 0.26599,-0.265706 0.69699,-0.265507 0.96267,7.73e-4 0.26571,0.265967 0.26549,0.696997 -7.5e-4,0.962638 L 114.835,45.52804 c -0.13288,0.132755 -0.30701,0.199163 -0.48108,0.199163 z"
       id="path146"
       style="stroke-width:0.0680715;fill:#303b4a;fill-opacity:1"
       inkscape:export-filename="C:\Users\sebas\path144.png"
       inkscape:export-xdpi="96"
       inkscape:export-ydpi="96" />
    <path
       fill="#010202"
       d="m 108.43169,41.846819 c -0.17434,0 -0.34865,-0.06655 -0.48159,-0.199632 -0.2657,-0.265971 -0.26548,-0.696931 5.1e-4,-0.962642 l 1.07499,-1.07392 c 0.26597,-0.26571 0.69697,-0.265505 0.96268,7.71e-4 0.26569,0.265971 0.26547,0.696937 -7.8e-4,0.962642 l -1.07497,1.073925 c -0.1329,0.132753 -0.30702,0.199164 -0.48111,0.199164 z"
       id="path148"
       style="stroke-width:0.0680715;fill:#303b4a;fill-opacity:1"
       inkscape:export-filename="C:\Users\sebas\path144.png"
       inkscape:export-xdpi="96"
       inkscape:export-ydpi="96" />
    <path
       fill="#010202"
       d="m 117.89365,41.846819 c -0.17433,0 -0.34865,-0.06655 -0.4816,-0.199632 -0.26569,-0.265971 -0.26547,-0.696931 7.7e-4,-0.962642 l 1.07499,-1.07392 c 0.26599,-0.26571 0.69698,-0.265505 0.96268,7.71e-4 0.26571,0.265971 0.26548,0.696937 -7.6e-4,0.962642 l -1.07501,1.073925 c -0.13288,0.132753 -0.30698,0.199164 -0.48108,0.199164 z"
       id="path150"
       style="stroke-width:0.0680715;fill:#303b4a;fill-opacity:1"
       inkscape:export-filename="C:\Users\sebas\path144.png"
       inkscape:export-xdpi="96"
       inkscape:export-ydpi="96" />
    <path
       fill="#010202"
       d="m 120.95688,43.559705 c -0.17438,0 -0.3487,-0.06654 -0.48167,-0.199687 -0.26568,-0.265976 -0.26537,-0.697004 7.7e-4,-0.96264 l 2.79042,-2.78682 c 0.26599,-0.265705 0.69698,-0.265438 0.96266,7.73e-4 0.26567,0.265968 0.26536,0.697004 -7.7e-4,0.962643 l -2.79039,2.78681 c -0.13288,0.132754 -0.30695,0.199098 -0.48102,0.199098 z"
       id="path152"
       style="stroke-width:0.0680715;fill:#303b4a;fill-opacity:1"
       inkscape:export-filename="C:\Users\sebas\path144.png"
       inkscape:export-xdpi="96"
       inkscape:export-ydpi="96" />
    <path
       fill="#010202"
       d="m 110.67805,44.308494 c -0.17435,0 -0.34863,-0.06654 -0.48158,-0.199627 -0.26571,-0.265969 -0.26549,-0.696938 7.6e-4,-0.962641 l 3.53919,-3.535601 c 0.26598,-0.265704 0.69698,-0.265505 0.96268,7.71e-4 0.2657,0.265971 0.26548,0.696937 -7.7e-4,0.962642 l -3.5392,3.535608 c -0.13289,0.132754 -0.30702,0.199157 -0.48108,0.199157 z"
       id="path154"
       style="stroke-width:0.0680715;fill:#303b4a;fill-opacity:1"
       inkscape:export-filename="C:\Users\sebas\path144.png"
       inkscape:export-xdpi="96"
       inkscape:export-ydpi="96" />
  </g>
</svg>
